<?xml version="1.0" encoding="UTF-8" ?>
<!DOCTYPE svg PUBLIC "-//W3C//DTD SVG 1.1//EN" "http://www.w3.org/Graphics/SVG/1.1/DTD/svg11.dtd">
<svg width="800pt" height="167pt" viewBox="0 0 800 167" version="1.1" xmlns="http://www.w3.org/2000/svg">
<g id="#6ab651ff">
<path fill="#6ab651" opacity="1.00" d=" M 54.27 0.00 L 54.60 0.00 C 57.51 2.17 61.07 3.17 64.30 4.74 C 71.68 8.17 79.19 11.33 86.51 14.90 C 74.68 13.41 62.28 14.39 51.39 19.48 C 49.02 20.59 46.98 22.53 44.27 22.75 C 47.07 14.97 51.09 7.64 54.27 0.00 Z" />
<path fill="#6ab651" opacity="1.00" d=" M 121.09 33.87 C 123.62 34.63 126.15 35.36 128.71 36.02 C 127.17 41.89 125.06 47.61 123.62 53.51 C 119.33 51.65 114.92 50.09 110.58 48.34 C 114.03 43.48 118.90 39.53 121.09 33.87 Z" />
</g>
<g id="#ffffffff">
<path fill="#ffffff" opacity="1.00" d=" M 48.00 23.88 C 65.52 13.46 88.29 14.32 106.00 23.83 C 110.41 26.66 114.63 29.76 118.66 33.10 C 117.54 37.44 113.31 40.15 111.13 44.00 C 109.64 45.54 108.23 47.17 107.12 49.01 C 105.93 50.29 104.77 51.60 103.63 52.94 C 101.37 52.21 99.56 50.64 97.68 49.25 C 93.77 46.80 89.53 44.92 85.07 43.73 C 81.66 43.58 78.41 42.14 74.97 42.60 C 71.03 43.26 66.80 43.97 63.71 46.72 C 61.71 48.98 60.40 51.95 60.61 55.01 C 60.87 55.57 61.40 56.70 61.66 57.27 C 62.86 60.00 65.32 61.68 67.94 62.91 C 69.44 63.93 71.12 64.63 72.79 65.29 C 74.80 66.24 76.81 67.18 78.93 67.83 C 80.54 68.63 82.19 69.37 83.93 69.80 C 92.49 73.96 102.04 76.35 109.57 82.41 C 112.78 85.25 115.88 88.28 118.16 91.95 C 119.22 93.89 120.19 95.90 120.89 98.00 C 124.67 110.54 122.36 124.75 114.10 135.02 C 108.27 141.16 101.05 146.12 92.89 148.55 C 74.00 154.60 52.94 151.06 35.97 141.18 C 34.01 139.74 32.00 138.38 29.95 137.09 C 28.32 135.58 26.66 134.11 25.01 132.62 C 25.55 131.38 26.14 130.17 26.76 128.96 C 32.47 123.65 36.59 116.88 42.14 111.42 C 51.10 118.74 62.09 124.93 73.99 124.79 C 77.38 124.29 81.05 125.09 84.15 123.30 C 86.71 122.28 88.76 120.37 90.29 118.11 C 90.49 117.04 90.84 116.03 91.34 115.06 C 92.38 109.79 88.27 105.35 83.90 103.14 C 72.49 97.63 60.36 93.70 49.15 87.76 C 47.75 86.88 46.36 85.96 44.95 85.10 C 39.26 80.25 33.90 74.51 31.80 67.14 C 30.10 63.47 30.60 59.39 29.74 55.53 C 30.20 53.06 30.47 50.56 30.58 48.05 C 31.78 43.00 33.89 38.19 36.89 33.94 C 39.48 31.15 42.12 28.40 44.97 25.87 C 45.99 25.22 47.00 24.56 48.00 23.88 Z" />
<path fill="#ffffff" opacity="1.00" d=" M 631.09 18.76 C 634.43 17.86 637.88 17.52 641.22 16.64 C 646.07 16.47 650.94 16.47 655.80 16.64 C 665.83 18.47 675.61 21.98 684.02 27.84 C 686.26 29.93 688.61 31.90 690.64 34.21 C 687.86 37.85 684.68 41.20 682.13 45.01 C 680.62 46.54 679.18 48.15 678.07 49.99 C 677.36 50.86 676.67 51.73 675.99 52.61 C 672.63 52.72 670.75 49.42 667.90 48.19 C 659.84 43.49 650.04 41.10 640.91 43.69 C 638.03 45.08 634.67 46.38 633.40 49.59 C 632.17 51.53 632.65 53.89 632.56 56.04 C 636.50 63.60 645.65 65.72 652.93 68.83 C 654.53 69.61 656.19 70.32 657.92 70.83 C 659.52 71.63 661.18 72.33 662.92 72.82 C 671.97 76.38 681.35 80.67 687.48 88.54 C 696.51 100.35 696.40 117.35 689.17 130.02 C 684.73 136.87 678.41 142.54 670.93 145.86 C 665.08 149.24 658.25 149.92 651.81 151.35 C 647.27 151.52 642.73 151.53 638.20 151.35 C 631.07 150.05 623.91 148.67 617.17 145.84 C 611.80 143.47 606.74 140.51 601.97 137.10 C 600.36 135.47 598.02 134.26 597.15 132.09 C 598.28 128.62 601.62 126.60 603.53 123.61 C 606.87 119.82 609.83 115.73 613.34 112.09 C 614.23 112.27 615.12 112.46 616.02 112.66 C 624.29 120.45 635.69 124.81 646.98 125.19 C 650.05 124.45 653.31 124.68 656.24 123.35 C 660.73 121.46 663.69 116.94 663.41 112.04 C 662.21 107.29 658.31 103.95 653.92 102.14 C 645.66 98.73 637.54 95.00 629.20 91.77 C 626.06 90.38 623.04 88.76 620.02 87.14 C 610.42 80.94 602.53 70.80 602.14 59.00 C 600.83 55.36 602.51 51.75 602.59 48.07 C 603.50 44.20 604.91 40.43 606.86 36.96 C 612.49 28.26 621.24 21.89 631.09 18.76 Z" />
<path fill="#ffffff" opacity="1.00" d=" M 123.07 18.86 C 133.68 18.19 144.38 18.63 155.03 18.62 C 158.79 26.93 161.45 35.74 165.19 44.08 C 169.05 55.10 173.45 65.93 177.14 77.02 C 181.69 64.71 186.45 52.46 191.21 40.23 C 192.35 37.15 193.76 34.18 194.83 31.08 C 196.61 26.95 198.15 22.71 199.82 18.54 C 210.21 18.73 220.63 18.16 230.99 18.84 C 230.38 22.97 227.79 26.39 226.24 30.19 C 223.47 37.23 219.46 43.71 216.75 50.78 C 213.60 57.05 210.61 63.41 207.76 69.81 C 205.74 74.13 203.41 78.31 201.73 82.78 C 199.29 88.20 196.11 93.32 194.25 98.98 C 193.69 99.96 193.11 100.93 192.52 101.89 C 192.40 117.41 192.46 132.93 192.49 148.44 C 187.70 149.09 182.85 148.62 178.04 148.75 C 172.54 148.61 167.01 149.08 161.53 148.46 C 161.71 142.30 161.08 136.09 162.18 129.99 C 162.27 122.31 162.18 114.63 162.23 106.95 C 162.33 104.17 161.57 101.40 160.24 98.97 C 155.96 90.71 152.48 82.08 148.25 73.80 C 145.23 66.08 140.85 58.97 137.77 51.27 C 136.01 47.40 134.09 43.62 132.25 39.80 C 129.77 32.57 124.90 26.28 123.07 18.86 Z" />
<path fill="#ffffff" opacity="1.00" d=" M 243.61 19.98 C 243.96 19.64 244.64 18.96 244.99 18.62 C 254.72 18.40 264.46 18.65 274.20 18.50 C 278.24 24.76 281.35 31.54 284.80 38.12 C 293.74 55.50 303.36 72.53 311.74 90.20 C 314.10 95.86 316.43 101.56 319.21 107.04 C 319.65 108.41 320.11 109.78 320.59 111.14 C 319.82 100.73 318.59 90.39 317.53 80.03 C 317.35 59.53 317.14 39.02 317.55 18.53 C 326.38 18.57 335.21 18.50 344.04 18.55 C 345.92 18.25 346.80 20.41 346.47 21.95 C 346.46 64.11 346.43 106.28 346.49 148.44 C 336.10 149.06 325.63 148.75 315.22 148.61 C 312.51 143.72 309.83 138.78 307.21 133.82 C 304.67 129.25 302.73 124.34 299.85 119.97 C 296.01 112.58 292.57 104.96 288.25 97.83 C 283.19 88.33 278.80 78.51 274.22 68.78 C 272.83 64.70 270.38 61.04 269.38 56.81 C 269.17 62.60 270.63 68.19 270.72 73.95 C 272.29 78.57 270.77 83.59 272.35 88.19 C 272.83 107.45 272.47 126.72 272.60 145.98 C 272.56 147.07 272.83 149.08 271.06 148.73 C 262.38 148.76 253.70 148.80 245.03 148.71 C 242.84 148.99 243.71 146.25 243.52 145.01 C 243.62 103.33 243.42 61.65 243.61 19.98 Z" />
<path fill="#ffffff" opacity="1.00" d=" M 392.23 41.98 C 394.91 34.21 396.72 26.16 399.79 18.53 C 411.59 18.55 423.40 18.55 435.20 18.53 C 437.05 22.90 438.27 27.51 439.80 32.00 C 440.96 36.36 442.41 40.63 443.76 44.93 C 445.73 50.20 446.99 55.70 448.82 61.02 C 449.17 62.03 449.51 63.04 449.83 64.07 C 451.00 68.43 452.43 72.71 453.82 77.01 C 457.06 87.68 460.59 98.27 463.81 108.96 C 464.16 109.98 464.49 111.01 464.80 112.05 C 468.46 124.15 472.54 136.14 475.90 148.32 C 472.32 149.15 468.62 148.62 464.99 148.75 C 457.90 148.63 450.79 149.03 443.72 148.52 C 443.13 144.56 442.09 140.67 440.79 136.89 C 440.41 134.60 439.64 132.40 439.20 130.13 C 438.13 126.26 437.08 122.38 436.26 118.46 C 423.38 118.44 410.51 118.50 397.63 118.42 C 397.48 119.66 397.20 120.87 396.80 122.05 C 396.53 123.40 396.30 124.76 395.77 126.04 C 394.05 133.55 391.48 140.90 390.27 148.53 C 380.08 149.07 369.86 148.56 359.66 148.80 C 359.53 143.70 362.13 138.96 363.44 134.10 C 365.39 126.67 368.19 119.50 370.17 112.07 C 370.48 111.05 370.82 110.04 371.18 109.03 C 374.60 98.38 378.01 87.73 381.17 77.01 C 382.88 71.70 384.73 66.43 386.17 61.04 C 388.35 54.74 390.16 48.32 392.23 41.98 M 415.82 47.03 C 414.79 51.37 413.84 55.73 412.80 60.06 C 411.18 67.73 408.94 75.25 407.22 82.89 C 405.90 86.65 404.92 90.52 404.22 94.44 C 412.73 94.38 421.25 94.44 429.76 94.40 C 428.67 89.18 427.52 83.94 425.77 78.89 C 424.49 72.57 422.47 66.41 421.18 60.09 C 420.72 58.78 420.45 57.41 420.18 56.06 C 418.86 51.41 417.74 46.70 416.81 41.96 C 416.61 43.68 416.44 45.41 415.82 47.03 Z" />
<path fill="#ffffff" opacity="1.00" d=" M 488.53 21.99 C 488.18 20.43 489.07 18.26 490.98 18.55 C 506.92 18.59 522.87 18.42 538.81 18.64 C 541.92 19.81 545.29 19.18 548.51 19.70 C 552.99 20.66 557.55 21.41 561.83 23.15 C 566.20 25.27 570.76 27.33 574.19 30.88 C 576.53 32.96 578.15 35.65 580.16 38.01 C 581.53 40.63 583.01 43.21 583.89 46.05 C 586.14 53.45 585.75 61.26 585.40 68.89 C 584.53 73.40 583.15 77.83 581.21 81.99 C 577.53 87.90 573.04 93.49 567.00 97.12 C 560.59 100.93 553.44 103.55 546.03 104.46 C 543.93 104.58 541.78 104.50 539.82 105.36 C 533.01 105.55 526.20 105.48 519.39 105.39 C 519.57 119.74 519.37 134.10 519.49 148.45 C 514.36 149.10 509.17 148.60 504.02 148.75 C 498.85 148.61 493.65 149.09 488.52 148.44 C 488.57 106.29 488.54 64.14 488.53 21.99 M 519.39 43.39 C 519.50 55.79 519.51 68.20 519.39 80.61 C 525.92 80.42 532.45 80.66 538.98 80.48 C 546.68 79.67 554.57 74.23 555.55 66.10 C 557.07 59.44 556.02 51.11 549.74 47.16 C 540.66 41.35 529.50 44.16 519.39 43.39 Z" />
<path fill="#ffffff" opacity="1.00" d=" M 715.31 61.04 C 715.47 46.87 714.98 32.67 715.56 18.52 C 742.39 18.63 769.23 18.42 796.06 18.62 C 796.39 18.95 797.05 19.61 797.38 19.94 C 797.56 27.27 797.42 34.61 797.45 41.95 C 797.70 43.38 796.32 44.79 794.89 44.52 C 778.42 44.53 761.96 44.57 745.49 44.50 C 745.56 52.79 745.51 61.08 745.52 69.37 C 760.17 69.44 774.83 69.18 789.48 69.50 C 789.53 77.83 789.55 86.17 789.47 94.50 C 774.82 94.76 760.16 94.56 745.51 94.60 C 745.53 104.19 745.52 113.77 745.52 123.36 C 762.68 123.35 779.84 123.33 797.00 123.37 C 798.43 123.14 799.62 124.64 799.45 126.00 C 799.50 133.49 799.42 140.97 799.47 148.46 C 795.68 148.98 791.85 148.69 788.04 148.75 C 764.07 148.70 740.09 148.85 716.12 148.68 C 715.94 148.46 715.57 148.02 715.39 147.80 C 715.20 118.88 715.36 89.96 715.31 61.04 Z" />
</g>
<g id="#c67227ff">
<path fill="#c67227" opacity="1.00" d=" M 37.87 24.94 C 39.68 24.37 41.47 23.53 43.39 23.52 C 42.16 25.54 40.21 26.90 38.58 28.57 C 32.38 34.77 28.72 43.22 27.99 51.93 C 27.76 54.78 27.01 57.58 25.50 60.03 C 22.08 50.90 19.55 41.47 16.17 32.32 C 23.29 29.52 30.68 27.52 37.87 24.94 Z" />
</g>
<g id="#4285a7fd">
<path fill="#4285a7" opacity="1.00" d=" M 104.09 55.17 C 106.89 53.58 108.61 50.78 110.58 48.34 C 114.92 50.09 119.33 51.65 123.62 53.51 C 126.52 54.70 129.47 55.77 132.39 56.91 C 129.96 63.18 127.73 69.55 125.03 75.72 C 122.68 79.90 121.04 84.41 118.93 88.70 C 113.09 80.70 104.44 75.36 95.23 72.04 C 98.32 66.49 100.87 60.65 104.09 55.17 Z" />
</g>
<g id="#dd3a2eff">
<path fill="#dd3a2e" opacity="1.00" d=" M 25.50 60.03 C 27.01 57.58 27.76 54.78 27.99 51.93 C 27.25 60.40 28.89 69.24 33.61 76.40 C 38.50 84.33 46.61 89.79 55.12 93.21 C 49.71 99.43 44.78 106.14 38.52 111.57 C 34.37 116.41 30.42 121.43 26.24 126.24 C 19.50 123.49 12.80 120.63 6.00 118.05 C 4.12 116.80 1.95 116.04 0.00 114.91 L 0.00 114.42 C 1.48 112.58 2.28 110.34 3.26 108.23 C 9.02 95.72 15.03 83.34 20.79 70.84 C 22.41 67.26 24.37 63.81 25.50 60.03 Z" />
</g>
<g id="#432c8cff">
<path fill="#432c8c" opacity="1.00" d=" M 118.93 88.70 C 121.04 84.41 122.68 79.90 125.03 75.72 C 129.52 95.02 133.35 114.48 137.85 133.77 C 134.81 134.58 131.73 135.26 128.63 135.77 C 128.74 135.07 128.97 133.65 129.09 132.94 C 125.98 132.11 122.85 131.37 119.69 130.75 C 126.61 117.90 126.57 101.22 118.93 88.70 Z" />
</g>
<g id="#c02d5bff">
<path fill="#c02d5b" opacity="1.00" d=" M 6.00 118.05 C 12.80 120.63 19.50 123.49 26.24 126.24 C 25.06 127.73 23.47 129.10 23.09 131.03 C 22.05 135.95 27.87 137.72 30.69 140.51 C 21.64 139.89 12.62 138.89 3.58 138.11 C 4.60 131.44 4.57 124.64 6.00 118.05 Z" />
<path fill="#c02d5b" opacity="1.00" d=" M 45.06 148.27 C 54.44 151.85 64.42 153.58 74.44 153.72 C 75.13 154.02 76.52 154.62 77.21 154.93 L 77.22 155.16 C 73.72 158.82 70.20 162.63 67.66 167.00 L 67.31 167.00 C 60.18 160.45 52.52 154.45 45.06 148.27 Z" />
</g>
<g id="#6b2e86ff">
<path fill="#6b2e86" opacity="1.00" d=" M 97.97 149.07 C 106.81 145.38 115.04 139.29 119.69 130.75 C 122.85 131.37 125.98 132.11 129.09 132.94 C 128.97 133.65 128.74 135.07 128.63 135.77 C 126.90 145.04 125.08 154.29 123.40 163.57 C 107.99 160.90 92.68 157.46 77.22 155.16 L 77.21 154.93 C 76.52 154.62 75.13 154.02 74.44 153.72 C 82.42 153.20 90.56 152.31 97.97 149.07 Z" />
</g>
</svg>
