<?xml version="1.0" encoding="UTF-8" ?>
<!DOCTYPE svg PUBLIC "-//W3C//DTD SVG 1.1//EN" "http://www.w3.org/Graphics/SVG/1.1/DTD/svg11.dtd">
<svg width="800pt" height="167pt" viewBox="0 0 800 167" version="1.1" xmlns="http://www.w3.org/2000/svg">
<g id="#6ab651ff">
<path fill="#6ab651" opacity="1.00" d=" M 54.34 0.00 L 54.71 0.00 C 54.66 0.12 54.56 0.36 54.51 0.48 C 64.34 4.44 73.71 9.47 83.65 13.16 C 82.99 13.58 82.33 13.99 81.66 14.41 C 68.93 13.63 55.51 15.81 44.90 23.29 C 44.56 22.92 44.23 22.54 43.90 22.16 C 47.92 15.04 50.75 7.33 54.34 0.00 Z" />
<path fill="#6ab651" opacity="1.00" d=" M 83.86 13.85 C 87.08 12.72 83.52 17.13 83.86 13.85 Z" />
<path fill="#6ab651" opacity="1.00" d=" M 121.11 33.87 C 123.65 34.62 126.19 35.38 128.74 36.11 C 127.03 41.90 125.22 47.66 123.52 53.45 C 119.24 51.71 115.00 49.84 110.60 48.43 C 113.97 43.48 118.88 39.54 121.11 33.87 Z" />
</g>
<g id="#3e3e3eff">
<path fill="#3e3e3e" opacity="1.00" d=" M 58.11 19.87 C 78.71 12.96 102.94 18.53 118.28 33.99 C 113.35 40.21 108.23 46.29 103.34 52.56 C 97.09 47.78 90.04 43.60 82.10 42.58 C 75.97 41.62 69.03 41.95 63.91 45.84 C 59.80 48.95 58.75 55.67 62.32 59.56 C 65.89 63.41 71.00 65.21 75.69 67.27 C 83.48 70.54 91.39 73.52 99.14 76.88 C 107.76 80.89 116.08 87.23 119.53 96.40 C 124.07 108.79 122.32 123.62 113.91 133.99 C 106.70 142.66 96.02 147.95 85.02 149.88 C 63.79 153.65 41.14 146.81 25.25 132.29 C 30.81 125.52 36.47 118.84 42.03 112.08 C 51.04 119.51 62.08 125.39 74.01 125.50 C 79.00 125.45 84.51 124.92 88.39 121.44 C 92.57 117.81 93.21 110.71 89.50 106.53 C 87.39 104.14 84.45 102.74 81.61 101.41 C 73.24 97.72 64.83 94.15 56.40 90.63 C 48.27 87.16 40.54 81.94 35.81 74.31 C 29.12 63.77 28.82 49.63 34.81 38.71 C 39.69 29.66 48.46 23.12 58.11 19.87 Z" />
<path fill="#3e3e3e" opacity="1.00" d=" M 631.60 19.43 C 651.81 13.34 675.07 19.05 690.01 34.01 C 685.05 40.15 680.06 46.27 675.11 52.42 C 668.16 47.02 660.02 42.59 651.05 42.18 C 645.35 41.79 638.94 42.51 634.65 46.66 C 631.18 50.22 630.90 56.88 634.73 60.29 C 637.37 62.85 640.76 64.43 644.09 65.92 C 652.79 69.64 661.64 73.01 670.35 76.70 C 679.02 80.63 687.44 86.81 691.06 95.92 C 695.05 106.30 694.64 118.42 689.35 128.28 C 683.98 138.67 673.32 145.36 662.34 148.53 C 639.71 154.70 614.37 148.02 597.16 132.24 C 602.74 125.57 608.33 118.89 613.85 112.16 C 622.60 119.48 633.36 125.15 644.95 125.60 C 650.07 125.68 655.68 125.16 659.85 121.88 C 664.39 118.34 665.26 110.94 661.48 106.55 C 659.19 103.96 655.97 102.50 652.89 101.07 C 644.98 97.62 637.05 94.20 629.07 90.91 C 621.28 87.69 613.86 82.96 608.89 76.04 C 600.94 65.16 600.38 49.64 607.08 38.02 C 612.38 28.90 621.55 22.38 631.60 19.43 Z" />
<path fill="#3e3e3e" opacity="1.00" d=" M 123.40 19.36 C 133.84 19.30 144.29 19.39 154.73 19.35 C 162.59 38.78 169.69 58.51 177.12 78.10 C 180.09 71.54 182.32 64.69 185.02 58.01 C 189.89 45.06 195.15 32.26 200.15 19.35 C 210.35 19.34 220.54 19.28 230.73 19.33 C 218.75 44.79 206.75 70.26 194.80 95.74 C 193.49 98.73 191.46 101.63 191.62 105.02 C 191.64 119.49 191.76 133.96 191.64 148.43 C 181.92 148.36 172.20 148.42 162.48 148.40 C 162.50 133.93 162.53 119.47 162.57 105.00 C 162.76 101.59 160.66 98.72 159.36 95.73 C 147.33 70.30 135.45 44.79 123.40 19.36 Z" />
<path fill="#3e3e3e" opacity="1.00" d=" M 244.34 19.34 C 254.32 19.38 264.31 19.32 274.29 19.39 C 284.62 39.16 295.01 58.90 305.37 78.65 C 311.31 89.61 315.32 101.49 321.12 112.51 C 320.52 98.31 317.98 84.23 317.84 70.00 C 317.73 53.13 317.82 36.26 317.74 19.39 C 327.02 19.29 336.30 19.36 345.58 19.34 C 345.57 62.36 345.61 105.39 345.56 148.41 C 335.58 148.40 325.60 148.38 315.62 148.42 C 305.64 129.39 295.71 110.33 285.72 91.30 C 279.37 79.71 274.86 67.22 268.78 55.49 C 268.93 67.13 271.13 78.64 271.66 90.27 C 272.51 109.62 271.98 129.01 272.14 148.38 C 262.89 148.44 253.64 148.35 244.39 148.43 C 244.27 105.40 244.36 62.37 244.34 19.34 Z" />
<path fill="#3e3e3e" opacity="1.00" d=" M 400.01 19.34 C 411.31 19.41 422.62 19.28 433.92 19.39 C 435.45 19.10 435.43 21.10 435.95 22.01 C 449.11 64.15 462.32 106.28 475.52 148.40 C 465.21 148.42 454.90 148.36 444.58 148.43 C 441.91 138.24 439.28 128.04 436.67 117.83 C 423.52 117.74 410.36 117.83 397.21 117.78 C 394.61 128.00 392.05 138.22 389.32 148.40 C 379.41 148.39 369.50 148.41 359.60 148.40 C 372.98 105.35 386.51 62.35 400.01 19.34 M 416.75 41.06 C 414.96 47.04 413.77 53.18 412.34 59.26 C 409.78 71.25 406.37 83.04 403.20 94.88 C 412.33 94.89 421.45 94.82 430.57 94.93 C 428.00 83.26 424.49 71.83 421.86 60.18 C 420.15 53.81 418.99 47.28 416.75 41.06 Z" />
<path fill="#3e3e3e" opacity="1.00" d=" M 489.47 19.34 C 504.62 19.41 519.78 19.33 534.93 19.40 C 546.26 19.60 558.06 21.02 567.96 26.96 C 576.89 32.30 583.04 41.87 584.54 52.13 C 586.26 63.17 584.99 75.16 578.74 84.67 C 572.67 94.37 562.03 100.43 551.04 102.85 C 540.45 105.37 529.51 104.57 518.73 104.70 C 518.75 119.25 518.68 133.80 518.77 148.35 C 509.00 148.47 499.24 148.37 489.48 148.40 C 489.46 105.38 489.48 62.36 489.47 19.34 M 518.73 42.59 C 518.72 55.53 518.73 68.47 518.72 81.41 C 524.80 81.39 530.89 81.67 536.96 81.32 C 542.90 80.94 549.20 78.84 552.94 73.96 C 556.68 69.05 557.15 62.45 556.37 56.54 C 555.71 51.86 552.76 47.52 548.39 45.57 C 539.15 41.14 528.61 42.88 518.73 42.59 Z" />
<path fill="#3e3e3e" opacity="1.00" d=" M 715.68 19.39 C 742.63 19.28 769.57 19.37 796.52 19.34 C 796.52 27.51 796.51 35.68 796.52 43.85 C 779.30 43.88 762.07 43.85 744.85 43.87 C 744.83 52.50 744.84 61.13 744.84 69.76 C 759.49 69.81 774.14 69.77 788.79 69.78 C 788.79 77.91 788.80 86.05 788.79 94.18 C 774.14 94.19 759.49 94.15 744.84 94.20 C 744.84 104.05 744.84 113.91 744.84 123.76 C 762.73 123.80 780.61 123.77 798.49 123.78 C 798.51 131.98 798.50 140.19 798.50 148.40 C 770.90 148.40 743.31 148.41 715.71 148.40 C 715.68 105.39 715.74 62.39 715.68 19.39 Z" />
</g>
<g id="#c67227ff">
<path fill="#c67227" opacity="1.00" d=" M 43.55 22.74 C 43.39 23.19 43.09 24.09 42.94 24.54 C 34.27 31.25 28.79 41.47 27.79 52.37 C 27.59 52.45 27.20 52.60 27.01 52.67 C 27.63 55.38 26.75 57.97 25.58 60.37 C 22.25 51.05 19.41 41.56 16.24 32.18 C 25.28 28.84 34.68 26.52 43.55 22.74 Z" />
</g>
<g id="#4185a7ff">
<path fill="#4185a7" opacity="1.00" d=" M 104.10 55.09 C 107.03 53.73 108.42 50.63 110.60 48.43 C 115.00 49.84 119.24 51.71 123.52 53.45 C 126.44 54.67 129.42 55.77 132.39 56.90 C 129.96 63.15 127.77 69.51 125.03 75.64 C 122.80 79.92 120.79 84.31 119.18 88.86 C 113.14 80.92 104.60 75.32 95.24 72.05 C 98.31 66.46 100.92 60.62 104.10 55.09 Z" />
</g>
<g id="#dd3a2eff">
<path fill="#dd3a2e" opacity="1.00" d=" M 27.01 52.67 C 27.20 52.60 27.59 52.45 27.79 52.37 C 27.55 60.71 28.87 69.37 33.61 76.42 C 38.46 84.42 46.68 89.57 55.01 93.35 C 49.82 99.36 45.00 105.74 39.08 111.08 C 34.55 115.93 30.64 121.31 26.20 126.24 C 20.27 123.48 13.74 121.91 8.36 118.04 C 7.82 118.05 6.73 118.07 6.18 118.07 C 4.15 116.91 1.96 116.03 0.00 114.72 L 0.00 114.29 C 0.04 114.42 0.13 114.68 0.17 114.81 C 8.56 96.63 17.35 78.63 25.58 60.37 C 26.75 57.97 27.63 55.38 27.01 52.67 Z" />
</g>
<g id="#432c8cff">
<path fill="#432c8c" opacity="1.00" d=" M 119.18 88.86 C 120.79 84.31 122.80 79.92 125.03 75.64 C 129.44 95.02 133.49 114.48 137.78 133.88 C 134.68 134.57 131.58 135.25 128.48 135.89 C 128.59 134.80 128.70 133.71 128.80 132.62 C 125.77 132.03 122.74 131.44 119.71 130.86 C 126.41 118.05 126.67 101.56 119.10 89.08 L 119.18 88.86 Z" />
</g>
<g id="#c02d5bff">
<path fill="#c02d5b" opacity="1.00" d=" M 6.18 118.07 C 6.73 118.07 7.82 118.05 8.36 118.04 C 13.74 121.91 20.27 123.48 26.20 126.24 C 24.05 128.35 22.77 131.10 22.75 134.14 C 25.37 136.35 28.05 138.49 30.73 140.61 C 21.66 139.76 12.58 138.96 3.51 138.10 C 4.87 131.47 4.27 124.57 6.18 118.07 Z" />
<path fill="#c02d5b" opacity="1.00" d=" M 45.12 148.28 C 54.31 151.93 64.13 153.26 73.93 153.90 C 74.76 154.12 76.41 154.55 77.24 154.77 C 73.95 158.78 70.59 162.73 67.32 166.76 C 59.94 160.58 52.59 154.36 45.12 148.28 Z" />
</g>
<g id="#6b2e86ff">
<path fill="#6b2e86" opacity="1.00" d=" M 93.87 150.60 C 104.34 147.17 114.16 140.57 119.71 130.86 C 122.74 131.44 125.77 132.03 128.80 132.62 C 128.70 133.71 128.59 134.80 128.48 135.89 C 127.05 145.17 124.99 154.33 123.39 163.58 C 108.02 160.61 92.56 157.99 77.24 154.77 C 76.41 154.55 74.76 154.12 73.93 153.90 C 80.62 153.11 87.45 152.79 93.87 150.60 Z" />
</g>
</svg>
