<?xml version="1.0" encoding="UTF-8" ?>
<!DOCTYPE svg PUBLIC "-//W3C//DTD SVG 1.1//EN" "http://www.w3.org/Graphics/SVG/1.1/DTD/svg11.dtd">
<svg width="606pt" height="162pt" viewBox="0 0 606 162" version="1.1" xmlns="http://www.w3.org/2000/svg">
<g id="#ff0000ff">
<path fill="#ff0000" opacity="1.00" d=" M 68.30 33.28 C 73.72 32.99 79.20 32.93 84.62 33.33 C 86.27 34.49 85.83 36.98 86.34 38.74 C 88.91 56.14 90.81 73.64 93.41 91.04 C 94.63 89.67 94.97 87.88 95.19 86.12 C 97.39 69.99 99.44 53.83 101.69 37.71 C 102.19 36.18 101.89 33.24 104.15 33.22 C 109.31 33.05 114.51 32.90 119.66 33.34 C 121.58 34.36 120.56 36.71 120.48 38.39 C 115.40 67.52 109.69 96.54 104.58 125.67 C 104.39 127.14 103.64 128.89 101.86 128.74 C 96.63 129.02 91.36 129.02 86.13 128.73 C 83.94 128.91 83.53 126.47 83.26 124.83 C 78.47 98.29 73.43 71.80 68.68 45.26 C 68.10 41.62 66.91 38.01 67.09 34.29 C 67.39 34.03 67.99 33.53 68.30 33.28 Z" />
<path fill="#ff0000" opacity="1.00" d=" M 127.12 36.94 C 127.08 35.51 127.14 33.16 129.14 33.22 C 139.10 32.95 149.09 33.23 159.06 33.10 C 160.77 33.33 163.56 32.67 164.17 34.88 C 165.46 39.68 166.35 44.65 166.71 49.62 C 166.45 49.87 165.94 50.39 165.68 50.65 C 159.53 51.33 153.31 50.43 147.16 51.16 C 146.70 58.70 146.69 66.30 147.16 73.84 C 151.64 74.40 156.16 73.82 160.64 74.33 C 161.98 75.04 161.66 76.76 161.93 77.99 C 162.15 81.27 162.98 84.51 162.84 87.82 C 163.02 89.37 161.15 89.74 160.05 90.12 C 155.85 91.26 151.45 90.69 147.16 91.16 C 146.70 97.70 146.70 104.29 147.16 110.83 C 152.97 111.54 158.84 110.71 164.64 111.33 C 166.94 112.85 165.42 116.03 165.34 118.26 C 164.39 121.64 164.92 125.92 162.64 128.66 C 151.50 129.12 140.29 128.88 129.14 128.77 C 127.14 128.84 127.07 126.49 127.11 125.05 C 127.13 95.68 127.12 66.31 127.12 36.94 Z" />
<path fill="#ff0000" opacity="1.00" d=" M 174.12 36.94 C 174.07 35.50 174.14 33.16 176.14 33.23 C 187.44 32.94 198.75 33.22 210.05 33.10 C 214.20 32.89 218.50 34.62 221.01 38.00 C 222.89 40.58 222.92 43.92 222.91 46.98 C 222.79 61.65 222.99 76.33 222.83 91.01 C 222.93 95.37 218.82 97.64 215.41 99.24 C 217.11 109.10 221.63 118.21 223.78 127.98 C 221.39 129.28 218.60 128.81 216.00 128.92 C 212.77 128.84 209.50 129.12 206.29 128.63 C 204.63 128.40 204.28 126.48 203.73 125.21 C 201.10 116.57 198.69 107.84 195.71 99.32 C 195.08 99.28 193.83 99.20 193.20 99.15 C 192.43 108.08 193.15 117.05 192.84 125.99 C 192.98 127.22 192.35 128.89 190.86 128.78 C 185.96 128.99 181.04 129.00 176.14 128.77 C 174.13 128.84 174.07 126.49 174.11 125.05 C 174.13 95.68 174.12 66.31 174.12 36.94 M 193.62 50.62 C 192.49 52.87 193.00 55.56 192.85 58.00 C 193.06 66.28 192.52 74.57 193.16 82.84 C 196.71 83.25 200.29 83.25 203.84 82.83 C 204.48 74.57 203.93 66.27 204.15 58.00 C 203.98 55.56 204.52 52.86 203.37 50.63 C 200.38 49.45 196.62 49.48 193.62 50.62 Z" />
<path fill="#ff0000" opacity="1.00" d=" M 231.12 36.95 C 231.07 35.50 231.14 33.16 233.14 33.23 C 238.37 33.03 243.63 32.97 248.86 33.26 C 250.66 33.12 251.27 34.96 251.75 36.32 C 255.35 48.09 257.05 60.46 261.65 71.90 C 264.42 65.38 265.26 58.27 267.47 51.57 C 269.38 45.61 270.04 39.28 272.48 33.51 C 277.31 32.79 282.20 33.19 287.06 33.10 C 288.61 33.30 290.76 32.65 291.66 34.36 C 292.10 37.55 291.84 40.79 291.89 44.00 C 291.87 71.02 291.88 98.04 291.89 125.06 C 291.92 126.49 291.86 128.84 289.86 128.77 C 285.04 128.96 280.17 129.10 275.36 128.67 C 273.94 127.99 274.21 126.33 274.12 125.06 C 274.09 115.36 274.14 105.67 274.14 95.97 C 274.21 93.59 273.65 91.26 272.73 89.09 C 268.15 99.03 265.90 109.89 261.91 120.05 C 260.15 118.81 259.90 116.55 259.21 114.67 C 256.49 105.72 254.06 96.64 250.28 88.06 C 249.35 101.23 250.35 114.47 249.66 127.64 C 249.41 127.90 248.90 128.41 248.64 128.67 C 243.50 129.10 238.30 128.94 233.14 128.77 C 231.14 128.84 231.07 126.49 231.12 125.06 C 231.12 95.69 231.12 66.31 231.12 36.95 Z" />
<path fill="#ff0000" opacity="1.00" d=" M 301.35 33.33 C 306.50 32.90 311.70 33.05 316.86 33.23 C 318.86 33.16 318.92 35.51 318.89 36.94 C 318.88 66.31 318.88 95.68 318.88 125.05 C 318.92 126.49 318.85 128.84 316.86 128.77 C 311.70 128.95 306.50 129.10 301.36 128.66 C 299.66 127.76 300.30 125.61 300.10 124.07 C 300.15 95.02 300.11 65.98 300.12 36.94 C 300.21 35.66 299.94 34.01 301.35 33.33 Z" />
<path fill="#ff0000" opacity="1.00" d=" M 327.12 36.94 C 327.08 35.51 327.14 33.16 329.14 33.23 C 334.62 33.06 340.16 32.90 345.63 33.34 C 347.34 34.23 346.70 36.39 346.91 37.94 C 346.85 58.29 346.90 78.64 346.88 99.00 C 346.85 102.95 346.76 106.90 347.16 110.84 C 353.07 111.45 359.02 110.87 364.94 111.23 C 365.27 116.49 363.96 121.70 362.86 126.80 C 362.69 129.30 359.80 128.78 358.06 128.91 C 348.42 128.78 338.77 129.06 329.14 128.77 C 327.14 128.84 327.07 126.49 327.12 125.06 C 327.12 95.69 327.12 66.31 327.12 36.94 Z" />
<path fill="#ff0000" opacity="1.00" d=" M 372.12 36.94 C 372.07 35.51 372.14 33.15 374.14 33.22 C 379.63 33.07 385.16 32.89 390.64 33.33 C 392.33 34.24 391.70 36.38 391.91 37.93 C 391.85 57.95 391.90 77.98 391.88 98.00 C 391.87 102.28 391.73 106.57 392.16 110.84 C 398.07 111.46 404.02 110.87 409.94 111.23 C 410.37 115.71 409.10 120.09 408.44 124.48 C 408.06 126.36 407.64 129.36 404.98 128.84 C 394.70 128.87 384.41 129.01 374.14 128.78 C 372.14 128.84 372.08 126.49 372.12 125.06 C 372.12 95.69 372.12 66.31 372.12 36.94 Z" />
<path fill="#ff0000" opacity="1.00" d=" M 418.36 33.34 C 423.50 32.90 428.70 33.05 433.86 33.23 C 435.86 33.16 435.92 35.51 435.89 36.94 C 435.88 66.31 435.88 95.69 435.88 125.06 C 435.92 126.49 435.86 128.84 433.86 128.77 C 428.96 128.99 424.04 129.00 419.14 128.77 C 417.14 128.83 417.06 126.50 417.11 125.05 C 417.12 99.04 417.12 73.02 417.12 47.00 C 417.21 42.79 416.84 38.55 417.34 34.36 C 417.59 34.10 418.10 33.59 418.36 33.34 Z" />
<path fill="#ff0000" opacity="1.00" d=" M 453.39 33.53 C 461.20 32.56 469.13 33.41 477.00 33.09 C 481.85 32.83 487.46 33.19 490.85 37.18 C 493.16 40.98 493.97 45.56 493.91 49.97 C 493.83 71.33 493.92 92.70 493.87 114.07 C 493.89 120.05 490.94 126.84 484.84 128.67 C 476.91 129.20 468.95 128.70 461.01 128.90 C 457.23 128.80 453.07 129.48 449.74 127.26 C 445.77 125.13 444.20 120.32 444.12 116.07 C 444.11 92.36 444.12 68.64 444.11 44.93 C 443.80 39.44 448.00 34.41 453.39 33.53 M 464.20 50.19 C 462.62 52.86 462.88 56.03 462.85 59.00 C 462.95 75.34 462.81 91.69 462.91 108.03 C 463.14 109.25 462.73 111.34 464.33 111.74 C 467.44 112.47 470.68 112.12 473.84 111.84 C 474.51 93.91 473.89 75.94 474.15 58.00 C 474.00 55.56 474.50 52.88 473.38 50.62 C 470.53 49.28 467.22 49.96 464.20 50.19 Z" />
<path fill="#ff0000" opacity="1.00" d=" M 503.36 33.34 C 508.17 32.92 513.04 33.00 517.86 33.26 C 519.66 33.11 520.25 34.96 520.75 36.32 C 524.08 47.11 525.65 58.42 529.69 68.99 C 530.61 57.46 529.68 45.88 530.34 34.36 C 530.60 34.10 531.11 33.59 531.36 33.33 C 536.84 32.90 542.37 33.06 547.86 33.23 C 549.86 33.16 549.92 35.51 549.89 36.94 C 549.88 66.31 549.87 95.68 549.89 125.05 C 549.92 126.49 549.86 128.84 547.86 128.77 C 542.35 128.92 536.79 129.14 531.29 128.64 C 529.22 128.32 529.30 125.79 528.70 124.26 C 526.23 113.76 523.60 103.31 520.32 93.03 C 519.60 104.01 520.01 115.01 519.84 126.00 C 519.99 127.23 519.34 128.88 517.86 128.77 C 513.04 128.96 508.17 129.10 503.36 128.66 C 501.94 127.99 502.21 126.34 502.12 125.06 C 502.12 95.69 502.12 66.31 502.12 36.94 C 502.21 35.66 501.93 34.00 503.36 33.34 Z" />
</g>
</svg>
